<!--?xml version="1.0" standalone="no"?-->              <svg id="sw-js-blob-svg" viewBox="0 0 100 100" xmlns="http://www.w3.org/2000/svg">                    <defs>                         <linearGradient id="sw-gradient" x1="0" x2="1" y1="1" y2="0">                            <stop id="stop1" stop-color="rgba(101.162, 50.017, 158.023, 1)" offset="0%"></stop>                            <stop id="stop2" stop-color="rgba(193.849, 87.138, 208.397, 1)" offset="100%"></stop>                        </linearGradient>                    </defs>                <path fill="url(#sw-gradient)" d="M21.4,-25.1C26.5,-21.1,28.8,-13.3,30.3,-5.3C31.7,2.8,32.5,11,29.9,18.8C27.2,26.6,21.2,34.1,14,35.3C6.9,36.5,-1.3,31.4,-8.9,27.4C-16.4,23.3,-23.3,20.4,-26.5,15.2C-29.7,9.9,-29.3,2.4,-27.4,-4.2C-25.5,-10.9,-22.2,-16.7,-17.4,-20.8C-12.6,-24.8,-6.3,-27.1,0.9,-28.2C8.1,-29.2,16.2,-29.1,21.4,-25.1Z" width="100%" height="100%" transform="translate(50 50)" stroke-width="0" style="transition: all 0.3s ease 0s;"></path></svg>