<svg width="200" height="200" xmlns="http://www.w3.org/2000/svg">
 <defs>
  <linearGradient y2="0" y1="1" x2="1" x1="0" id="sw-gradient">
   <stop offset="0%" stop-color="rgba(101.162, 50.017, 158.023, 1)" id="stop1"/>
   <stop offset="100%" stop-color="rgba(193.849, 87.138, 208.397, 1)" id="stop2"/>
  </linearGradient>
 </defs>
 <g>
  <title>Layer 1</title>
  <path stroke="null" id="svg_3" stroke-width="0" height="100%" width="100%" d="m96.46935,98.16161c9.06389,6.49187 13.15154,19.15102 15.81739,32.13474c2.48811,13.14604 3.90991,26.45439 -0.71091,39.11353c-4.79854,12.65913 -15.46194,24.83141 -28.25802,26.77898c-12.61837,1.94754 -27.19169,-6.32957 -40.69867,-12.82146c-13.32926,-6.65416 -25.59218,-11.36078 -31.27933,-19.80019c-5.68714,-8.60175 -4.97625,-20.774 -1.59951,-31.4856c3.37674,-10.87386 9.24162,-20.28708 17.77234,-26.94125c8.53074,-6.49187 19.72732,-10.22469 32.52339,-12.00996c12.7961,-1.62296 27.19168,-1.46066 36.43332,5.03121z" fill="url(#sw-gradient)"/>
  <path stroke="null" id="svg_4" stroke-width="0" height="100%" width="100%" d="m170.35748,5.65274c13.61815,5.9312 19.7597,17.49704 23.76505,29.35943c3.73828,12.01068 5.8745,24.16965 -1.06812,35.73549c-7.20963,11.56583 -23.23097,22.68684 -42.45659,24.46621c-18.95863,1.77934 -40.85448,-5.78293 -61.1482,-11.71413c-20.02668,-6.07948 -38.45126,-10.37961 -46.996,-18.09016c-8.54471,-7.85885 -7.47661,-18.97984 -2.40318,-28.76633c5.07343,-9.93475 13.88518,-18.53499 26.70225,-24.61447c12.8171,-5.9312 29.63956,-9.34164 48.86517,-10.97273c19.22563,-1.4828 40.85445,-1.33451 54.73962,4.59668z" fill="url(#sw-gradient)"/>
 </g>
</svg>